<svg width="300" height="300" xmlns="http://www.w3.org/2000/svg">
  <path d="M0 287.344h5.031V.013H0Zm0 0" fill="#172e4f"/>
  <path d="M93.31 50c-.701 0-1.272-.57-1.272-1.27 0-.7.57-1.258 1.271-1.258.7 0 1.27.557 1.27 1.257 0 .7-.57 1.271-1.27 1.271m0 5.77c-.7 0-1.27-.57-1.27-1.27 0-.7.57-1.271 1.27-1.271.7 0 1.27.57 1.27 1.27 0 .7-.57 1.271-1.27 1.271m0 5.758c-.7 0-1.27-.558-1.27-1.258s.57-1.271 1.27-1.271c.7 0 1.27.57 1.27 1.27 0 .701-.57 1.259-1.27 1.259m0 5.77c-.7 0-1.27-.57-1.27-1.271 0-.7.57-1.27 1.27-1.27.7 0 1.27.57 1.27 1.27 0 .7-.57 1.27-1.27 1.27m-.389 5.59a1.262 1.262 0 0 1-.7-1.129c0-.7.57-1.27 1.27-1.27.091 0 .17.013.26.025a143.01 143.01 0 0 1-.83 2.373m-5.381.169c-.7 0-1.27-.558-1.27-1.258s.57-1.27 1.27-1.27c.7 0 1.27.57 1.27 1.27 0 .7-.57 1.258-1.27 1.258m-.013 5.77c-.7 0-1.27-.57-1.27-1.27 0-.7.57-1.271 1.27-1.271.7 0 1.258.57 1.258 1.27 0 .7-.558 1.271-1.258 1.271m-.039-14.069c.7 0 1.258.57 1.258 1.271a1.265 1.265 0 1 1-2.529 0c0-.7.558-1.27 1.271-1.27m-2.295-5.032-1.349-2.502-2.917 5.472-3.164-5.42-2.71 5.316-2.97-5.394-1.322 2.606-.778-2.944 2.204-4.317 2.944 5.38 2.8-5.458 3.113 5.342 2.813-5.29 2.166 4.032zm-2.036 12.072c0 .7-.57 1.258-1.27 1.258-.247 0-.493-.065-.688-.207l-.272.492-3.164-5.42-2.71 5.304-.26-.454c-.22.181-.492.285-.803.285a1.25 1.25 0 0 1-1.258-1.258c0-.57.376-1.063.882-1.219l-1.777-6.716.35-.675 2.944 5.369 2.8-5.447 3.113 5.343 2.813-5.29.286.518-1.842 6.911c.506.182.856.649.856 1.206m-2.62 5.758c0-.7.571-1.271 1.272-1.271.7 0 1.27.57 1.27 1.27 0 .7-.57 1.271-1.27 1.271-.7 0-1.271-.57-1.271-1.27m1.348 6.846c-.7 0-1.257-.57-1.257-1.27 0-.688.557-1.259 1.257-1.259.7 0 1.271.571 1.271 1.258 0 .7-.57 1.271-1.27 1.271m-2.516-2.723-1.414-2.567-1.361 2.684-.96-3.58 2.295-4.473 2.438 4.176zm-1.336 6.51c-.7 0-1.27-.571-1.27-1.271 0-.597.414-1.103.985-1.232l.298-.597.285.519-.025.078c.57.116.998.622.998 1.232 0 .7-.57 1.27-1.27 1.27M72.73 77.555c0-.7.557-1.271 1.258-1.271.7 0 1.27.57 1.27 1.27 0 .7-.57 1.271-1.27 1.271-.7 0-1.258-.57-1.258-1.27m1.31 6.846c-.7 0-1.271-.57-1.271-1.27a1.27 1.27 0 0 1 2.541 0c0 .7-.57 1.27-1.27 1.27m13.446-25.402c.7 0 1.258.57 1.258 1.27 0 .701-.558 1.259-1.258 1.259-.713 0-1.27-.558-1.27-1.258s.557-1.271 1.27-1.271m0-5.77c.7 0 1.258.57 1.258 1.27a1.265 1.265 0 1 1-2.529 0c0-.7.558-1.27 1.271-1.27M67.83 55.77c-.7 0-1.27-.57-1.27-1.27 0-.7.57-1.271 1.27-1.271.7 0 1.271.57 1.271 1.27 0 .7-.57 1.271-1.27 1.271m0 5.758c-.7 0-1.271-.558-1.271-1.258s.57-1.271 1.27-1.271c.7 0 1.271.57 1.271 1.27 0 .701-.57 1.259-1.27 1.259m0 5.77c-.7 0-1.271-.57-1.271-1.271 0-.7.57-1.27 1.27-1.27.7 0 1.271.57 1.271 1.27 0 .7-.57 1.27-1.27 1.27m0 5.758c-.7 0-1.271-.558-1.271-1.258s.57-1.27 1.27-1.27c.7 0 1.271.57 1.271 1.27 0 .7-.57 1.258-1.27 1.258m0 5.77c-.7 0-1.271-.57-1.271-1.27 0-.7.57-1.271 1.27-1.271.7 0 1.271.57 1.271 1.27 0 .7-.57 1.271-1.27 1.271m-4.837-5.939a76.175 76.175 0 0 1-.817-2.372 1.273 1.273 0 0 1 1.53 1.245c0 .492-.298.92-.713 1.127m-1.997-6.859c0-.7.557-1.27 1.258-1.27.7 0 1.27.57 1.27 1.27 0 .7-.57 1.27-1.27 1.27-.7 0-1.258-.57-1.258-1.27m1.245-12.76c.7 0 1.27.571 1.27 1.271s-.57 1.271-1.27 1.271c-.7 0-1.271-.57-1.271-1.27 0-.7.57-1.271 1.27-1.271m1.297 7.002c0 .7-.57 1.258-1.27 1.258a1.25 1.25 0 0 1-1.258-1.258c0-.7.557-1.271 1.258-1.271.7 0 1.27.57 1.27 1.27m-1.283-12.797c.7 0 1.27.557 1.27 1.257 0 .7-.57 1.271-1.27 1.271-.7 0-1.258-.57-1.258-1.27 0-.7.557-1.258 1.258-1.258m34.595-2.503H76.271c-.052.182-.13.363-.22.545h12.901l-.596 2.256c.26.246.428.583.428.96 0 .7-.558 1.27-1.258 1.27h-.117l-.778 1.764-2.788-5.174-2.917 5.472-3.164-5.42-2.71 5.303-2.97-5.381-2.787 5.459-1.077-1.828-.064-.234a1.273 1.273 0 0 1-1.595-1.232c0-.583.402-1.076.946-1.219l-.531-1.996h3.423a6.25 6.25 0 0 1-.843-.545H58.882c0 7.248-.933 37.318 19.074 45.747C97.9 82.287 96.85 52.217 96.85 44.969m-19.165-.208.39-.013c.401-.531.764-.92 1.088-1.244-.064-.065-.116-.104-.116-.104s-1.31 1.361-1.362 1.361m8.714-3.41a9.824 9.824 0 0 1-3.41-3.371s-.013 0-.013-.013c.207.687.765 1.478 1.283 2.023a9.956 9.956 0 0 0 1.855 1.426zm1.867-10.957c.104.143.169.247.169.247l-.234-.402c.026.052.04.103.065.155m-9.556 1.504c-.39-.415-.571-.505-1.05-.842.09.298.129.739 0 .998-.156.324-.364.519-.792.583.35-.051.791-.116 1.025-.181.35-.104.609-.298.817-.558m-.299.454s.286-.117.57-.324c.273-.194.597-.532.766-.869.272-.57.298-.946.324-1.245.039-.31.013-.259 0-.466.532.207.908.402 1.154.713.065-.454-.052-1.803-.934-2.503-.816-.648-1.167-1.284-1.62-2.01.168.519.881 2.646.933 3.359.078.92.04 2.438-1.193 3.345m38.149-15.858c-1.232.946-2.023 1.569-3.437 2.308-1.27.44-2.424 0-3.436-.752-1.44-1.063-2.852-2.84-3.436-3.372 0 0-.817-.674-.92-.687.103.752.609 1.427.868 2.062.454 1.167.636 2.023.247 4.305-.52.26-1.997.039-2.114-.117-.519-.713-.558-1.582-.285-2.749.026-.142.052-.376.142-.531-.233.259-.894 1.218-1.283 1.063 0-.726.57-1.141.778-1.79.453-1.387-.7-2.813-1.492-3.163.065-2.451 1.22-2.944 3.514-2.84 2.296.09 3.475.194 4.668-1.465.234-.338.947-1.556 1.505-1.932-.052.635-.104 1.167 0 1.945.064.972.35 1.374.233 2.437-.104.96-.973 1.09-2.01 1.115-.778 0-2.749-.012-3.644-.168 0 .052.467.337.921.61.623.375 2.282 1.102 3.021 1.555 1.128.714 2.218 1.932 3.514 2.257.675.168 1.258.168 2.101-.234.337-.155.778-.44 1.141-.726.026.44-.402.622-.596.869m-13.59 9.608c-.013.57-.674 1.452-1.037 1.893-1.27 1.466-2.58 3.527-5.342 3.23-1.077-.118-2.295-.61-3.242-.48-.233.025-.324.077-.545.142.817.246 2.205.83 2.685 1.128.544.35 2.308 1.686 3.591 1.971.143.039 1.025.233 1.634.078.156.26.674 1.673.04 2.438-.442.492-.948.726-1.48.804-.777.116-2.074-.273-3.02-.921-.908-.635-1.803-1.699-2.257-2.217.13.583.286 1.231.415 1.828.312 1.348-.376 2.684-.817 3.15l-.505.52c-.636-.48-1.232-1.557-1.038-2.685.143-.648.247-.868.13-1.66-.052-.414-.117-.635-.207-1.089.402-.402.752-.726 1.192-1.257.402-.454.532-1.18-.466-1.388l-.791-.194s-.454-.091-.545-.247c.156.817.156 1.336.078 1.712-.545-.973-1.245-1.543-2.062-1.906-.363-.117-.687-.247-.946-.311a.912.912 0 0 1-.169-.247c-.337-.492-1.09-1.582-1.361-1.919-.377-.428-1.66-1.556-1.958-1.997a7.057 7.057 0 0 1-.649-1.037s1.491.7 2.153.895c.22.064 1.465.415 2.813.674 2.672.493 6.212 1.011 6.212 1.011s-5.096-.635-6.056-.752c0 0-.026 0-.09-.013-.117-.013-.066-.013.09.013-.013-.013-2.866-.48-4.46-1.245 0 0 .077.195.31.441.403.441 1.09 1.102 1.414 1.44.376.389 1.141 1.672 1.517 2.334-.207-.623-.168-1.595-.117-2.23 4.124.453 12.565 1.88 14.886-1.907m-2.398 5.913c.116-1.323 1.348-2.425 2.152-3.06.402-.337 1.336-.74 1.387 0 .026.376-.13 1.024-.337 1.465-1.102-.661-2.152.104-2.788.947-.116.168-.414.648-.414.648m-11.956-1.037c1.076.272 2.114 1.076 2.723 2.178-.09.195-.233.35-.376.519a2.265 2.265 0 0 1-.83-.636 9.833 9.833 0 0 1-1.517-2.061m.415 4.201-.376-.13c.752.234 3.021-.778 3.125-2.645 0-.117-.013-.557-.013-.7.298.065.934.052 1.258.311.337.324-.117.726-.35 1.024-.48.571-2.127 2.503-3.644 2.14m-3.462 4.785c2.165.324 4.123-1.997 3.008-3.657.493.272.908 1.102 1.167 1.621.7 1.361 1.4 2.905-.467 3.955-2.256 1.258-4.564-1.465-4.966-1.828a.227.227 0 0 0-.052-.065c-1.595-1.556-2.061-3.1-2.074-3.125-.39-1.025-.428-2.97-.35-4.422-.74 2.088-2.412 2.658-3.644 2.036-1.245-.61-2.62-1.764-2.71-1.829 0 0-.091-.103-.143-.142-.246-.208-.454-.649-.415-1.05.078-.7.467-.986.765-1.129.506-.233.817-.272 1.4.065.182.117 1.453 1.05 1.738 1.349.48-.74.584-1.829.57-2.516-.012-.765-1.153-4.318-1.166-4.357l.61.765c.22.273.92 1.336 1.62 1.932.83.714.856 1.4.947 1.88.039.234.103.882-.208 1.194-.13-.545-.519-.662-.972-.934 0 .674-.117 2.191-1.75 2.775-1.246.44-2.127.389-2.594.298.622.441 1.906 1.27 2.373 1.491 0 0 .57.35 1.296.182.727-.156 1.712-.7 2.412-3.034l.156-.52-.026.546c-.026.972-.117 4.227.324 5.38 0 .014.169.48.57 1.155.727 1.05 1.414 1.815 2.581 1.984m1.219 5.005h-.39c-.609-1.57-1.36-2.762-2.294-3.203-.934-.44-1.92-.272-3.825.882-.338.207-.7.467-1.116.869.208.181.623.635.74 1.244-.688-.012-2.27 0-2.218 0 .934-1.218 1.79-1.958 2.412-2.334 1.66-1.011 2.866-1.517 4.046-1.011.855.376 1.906 1.4 2.645 3.553M76.31 41.857c-.467.467-.48.467-.947.92-.22.221-.44.636-.57.973.31 1.063.778 1.725.233 2.593-.61.7-.298 1.492-.337 1.518-1.076-.804-2.334-1.492-3.423-2.127-.376-.22-.895-.506-1.349-.752-.13-.078-.298-.182-.363-.26-.039-.051-.052-.22.052-.518.09-.26.311-.687.778-1.375.207-.298.674-1.037.972-1.218.182.246.325.855.428 1.205.195.714.156 1.323.091 2.062.752-.026.791-1.297.622-1.79-.466-1.828-1.543-4.136-2.645-6.522-1.089-2.373-2.23-3.838-4.15-5.29 2.127-.208 5.084-.986 5.084-.986 1.011.415 2.632 2.516 3.384 3.787.908 1.647 1.66 3.527 2.256 5.55.156.531.714 1.478-.116 2.23M64.38 31.056s-.389.051-.285-.208c.233-.635 2.412-1.31 3.164-1.426-1.219.687-1.076.739-.661.648 1.01-.233.881-.207 1.906-.44 2.67-.714 5.51-1.427 7.507-2.866.286-.208.441-.312.636-.377.285-.103.7-.077.79.117-.284-.155-.816-.013-1.062.156-.571.415-1.142.765-1.712 1.167.687-.169 2.49-.687 2.632-.623-.596.532-3.267 1.57-4.175 1.88-2.827.973-5.304 1.466-8.74 1.972m-2.14 9.258c-.453.168-.777.104-.985-.065-.207-.22-.207-.687-.104-1.063.052-.156.208-.35.286-.467.454.311 1.75.44 2.97-.324-.532.596-1.609 1.698-2.166 1.919m7.884-14.07c.57-.207 3.864-.92 4.227-.985-.454.454-1.686 1.971-1.816 2.723a87.588 87.588 0 0 0 1.971-.622c-.31.194-1.232.583-1.672.752-1.582.622-4.656 1.323-5.576 1.504.194-.506 1.854-3.008 2.866-3.371m-15.003 8.934c-.415.169-.986.454-1.556.285-.402-.142-.519-.311-.648-.415-.74-.804-.428-2.035-.286-3.228.376-.104.752-.247 1.128-.338 1.958.26 1.492 1.932 1.362 3.696m-.182-5.265c-.48-.363-1.011-1.465-1.296-2.022-.726-1.427-1.064-2.503-1.077-3.813 0-.842.117-1.88.325-2.852.168-.791.285-1.427.337-2.218.26-.052.583-.246.972-.077.895-1.116 1.167-3.424-.946-3.787-.169-.869-.182-1.18-.26-1.906 1.258-.428 1.855-.09 2.801.96 1.09 1.219-.09 5.251-.48 6.82-.22.92-.933 3.566-.077 3.93.168-.65.583-1.687 1.504-2.542.881-.87 1.932-1.18 3.164-2.762 2.437 1.724-.545 2.697-.908 4.136 1.011-.207 3.125.169 3.345 1.582-.622.402-1.037.986-1.97 1.167-.805.156-2.218.026-2.905-.039-1.699-.142-2.217 1.232-2.464 2.607-.013.09-.039.66-.065.816m-2.282-16.532c.117.596.143 1.063.272 1.66-.635-.415-.881-1.362-.272-1.66m-10.684 7.054c-1.284-.234-2.918-2.36-3.06-3.994-.014-.298.012-1.037.116-1.504.052-.285.169-.752.428-.817-.026.285.117.532.596.856 0 0 .662.415.895.635.234.22.83.778.843 2.593.039.48.389 1.958 1.75 1.945-.181.208-.803.415-1.568.286m.985-10.037c-.44-.324-.583-.648-.752-1.063a1.17 1.17 0 0 1-.104-.765c.091-.285.22-.454.39-.61.233-.194.66-.246.907-.18.285.064.454.194.674.323.013.532-.181 1.09-.376 1.427-.26.428-.687.583-.739.868m52.658 11.19c-.856.908-.13 1.7-.065 2.542a4.929 4.929 0 0 1-.155 1.556c-.026.117-.052.324-.013.454-.182-.039-1.4-.272-1.621-.557-.298-.428-.26-.74-.104-1.271.091-.273.597-.895.636-.947.337-.415.7-1.206.933-1.75a.822.822 0 0 1 .506-.428c.324-.078.506-.091.778.013-.298.078-.519 0-.895.389m19.437-8.779c-.298.04-.596.117-.803-.013a6.086 6.086 0 0 0-.273.597c-.285.752-.168 1.556-.09 2.14.025.336.181.518.168.557-1.595-.311-2.775-1.712-3.98-2.373-.908-.428-1.894-.83-2.672-1.193.843.065 2.14.117 2.373.117 4.435 0 2.152-2.127 2.425-5.55.039-.83.285-1.167.285-1.167-1.076.298-2.27 3.034-3.67 3.734-1.672.843-4.162-.376-5.977.299-.843.31-1.427 1.102-1.971 1.737-1.271 1.478-3.398 2.399-2.45 5.848.466 1.712 1.724 3.488 1.97 4.785.117.402.182.79.117.985l-.415-.868c-.713-1.621-1.4-2.607-2.983-3.333-.246-.117-.713-.506-.622-.726a1.443 1.443 0 0 0-.519.285c-.324.311-.48.973.415 2.282-.35-.09-.505-.051-.765 0-.246.078-.48.195-.661.727-.182.31-.246.635-.519 1.05-.26.376-.622.765-.907 1.335-.584 1.193-.195 1.868 1.011 2.153.324.078.83.272 1.258.233-.22-.233-.143-.596-.091-.856.078-.44.104-.959.078-1.465 2.14-.7 3.682 1.102 4.279 2.723.09.234.155.467.207.675v.064c-.57.22-1.167.286-1.906.415-3.89.7-7.845-1.802-11.359-2.386-.972-.207-5.666-1.05-9.271-1.011-3.566.026-8.013 1.284-8.908 1.543-.804.246-1.764.661-2.088.778-3.203 1.219-6.937 1.582-11.112 1.517.051-1.115.804-1.647 1.737-1.647.973-.013 2.166.299 3.151.078 1.284-.363 1.478-.882 2.217-1.322-.376-1.57-1.4-2.075-3.293-2.088.648-.661 1.556-.96 2.036-1.79 1.011-1.75.207-3.332-1.504-4.071-.662-.272-.766-1.076-.766-1.076-1.037.894-.402 2.476.441 2.97-1.374 1.737-2.437 1.88-3.228 2.787-.415.402-1.038 1.219-1.22 1.958-.362-.558.468-3.32.675-4.123.454-1.79 1.945-4.305.467-6.575-.713-1.089-5.55-3.838-8.247-3.02-1.388.414-3.138.803-4.085.544-.596-.169-.622-.208-.7-.299.065-.492.311-.492.726-1.205.208-.376.247-.999.299-1.595-.247.039-.415-.169-.545-.247-.324-.194-.895-.505-1.504-.039-1.375.882-.493 5.42.596 6.095 1.18.726 3.683-.104 4.15-.298l.44-.195c-.181.195-.881.493-.881.493-1.167.493-2.062 1.102-2.892 1.97-.674.714-.843 1.297-1.647 1.53-.103-1.088-.285-1.296-.661-1.724-.337-.389-1.893-.972-1.582-1.958-1.141-.246-1.258 1.906-1.284 2.27-.026.83.208 1.763.649 2.567.843 1.491 2.347 2.62 3.527 2.399 1.958-.363 3.604-2.23 4.551-3.644.376-.57.467-.92 1.011-1.478.143-.13.338-.337.428-.376-.039.998-1.219 2.152-1.193 3.125.013.985.363 1.4.247 2.243-.078.596-.39 1.504-1.206 1.699.674.026 1.595-.13 1.919-.22 1.932-.52 2.14-1.764 2.075-4.397.79.467 1.011 1.232 2.334 1.258-.013 2.049-1.025 4.033-.597 6.211.649 3.281 2.957 7.936 7.482 6.575.908-.273 1.647-.675 2.438-1.012-.234.337-6.108 4.059-6.626 4.188.155-3.099.272-3.773-2.516-4.668-.869-.285-1.88-1.206-2.515 0a1.46 1.46 0 0 0-.091.83c.039.143.104.247.065.454.142.013.389.117.557.182.311.116.726.155 1.258.09-.143.908-.389 1.894.013 2.866.415 1.011 4.214 3.086 5.848 2.516 2.191-.765 3.1-2.633 4.37-4.305.181-.286.739-.843 1.024-.96a1.682 1.682 0 0 1-.181.415c-.934 1.556-.843 2.866-.48 5.031.104.61.065.83-.052 1.128-.856.065-1.27-.13-1.582-.285-.26.402-.61.985-.545 1.725.052.894 1.155.79 1.712.531.661-.324 2.684-2.36 2.918-3.047.259-.752-.065-1.764-.117-2.503.765.675 1.335.493 2.01-.039-.117-.752-.986-1.75-1.064-2.113-.025-.13-.051-.272-.012-.402 2.295 1.452 3.799 5.783 5.03 8.765-.44.234-1.802 1.997-2.074 3.125-.039.169-.104.428-.078.571.013.143.13.169.247.246 1.607.778 3.98 2.283 5.796 3.41.44.273 1.66-2.333 2.36-3.487 4.37-.065 8.817-.013 9.686-.013-.35-1.012-1.115-2.529-1.4-3.255.453.363.816.532 1.478.687 1.97.454 4.097-1.14 3.488-3.203-.26-.855-1.258-2.969-2.036-3.345-1.79-.843-2.93.882-2.399 2.516.74.324 1.297.298 2.036-.117-.545.985-1.906 1.452-2.814 1.258-.233-1.764.376-3.333.778-4.876.065-.272.246-.804.246-.804 1.414 1.102 2.425 1.997 3.994 1.297.337-.156 1.206-.765 1.206-.765.09.48.247 1.167.169 1.556-.298 1.543-.454 2.217.467 3.358.181.208.648.662.933.882-.065-.39.22-.545.415-.752.532-.57.92-1.4 1.037-2.256.091-.74-.025-1.479-.259-2.14.92.96 1.478 1.958 4.059 2.503 2.386.492 4.11-2.023 4.771-4.526.247-.92-.57-2.023-.674-2.515.324-.156.804-.104 1.18.31.285-.479 1.128-2.878-.272-2.67-.532.078-1.141.583-1.465.894-1.128 1.116-2.36 2.335-1.582 4.41.013.051.09.233.09.233-1.828.285-3.695-1.245-4.862-1.92-.713-.401-1.92-.842-1.92-.842.597-.143 2.36.83 4.008.492 1.231-.259 2.113-.765 3.695-2.515 1.037-1.141 1.828-2.45 2.049-3.41.324-1.466-.272-5.226-.778-7.197 0 0-.22-.92-.298-1.115-.312-.661-.48-2.477-.376-3.644 1.66.843.726 2.542.635 3.93-.052.336.039.66.039.673.246.078.428 0 .713-.233l.298-.272-.052.272c-.31 1.712.299 3.1 1.906 3.397 1.271.22 3.164.623 3.566-.415.13-.389.13-.518.052-.739-.116-.26-.26-.44-.415-.57-.142-.117-.298-.22-.415-.402-.259.116-.518.168-.752.26-.26.103-.518.284-.713.505-.065.052-.13.117-.181.168.038-.894.272-1.906.038-2.956-.142-.74-.583-1.764-.998-2.542 0 0 .61.545.947.934.207.233 1.374 1.802 2.982 2.814 1.063.674 2.23 1.05 3.306.674 1.284-.44 1.129-.596 2.244-1.297.428-.233.817-.531 1.452-1.05 2.191-1.465.778-4.318-1.712-3.942m-1.698 24.222c-.337-.13-1.102-.428-.999-.843.156-.44.273-.505.804-.7.156.026.312.065.467.09.026.066.065.13.09.182-.259-.116-.673.052-.751.247-.065.285-.052.428.298.57.493.156.947-.155 1.09-.259l.116-.181c.104.025.285.155.311.22-.428.156-.856.713-1.426.674m16.675 30.589c-.467-.96-1.245-1.62-2.308-1.906-.765-.208-1.543-.169-2.321-.04a8.084 8.084 0 0 0-2.8 1.064c-.779.467-1.518.726-2.542.519-.428-.09-.623-.39-.765-.57-.312-.416-.584-.766-.856-1.194-.688-1.102-1.012-2.074-1.362-3.32-.246-.88-.48-1.776-.713-2.657-.013-.065-.882-3.333-.947-3.903-.051-.61-.181-1.22-.22-1.842a19.713 19.713 0 0 1 .117-3.708c.168-1.219.467-2.373 1.283-3.346.104-.116.999-1.543 1.258-2.178.791-1.958 1.258-3.98 1.025-6.12a12.426 12.426 0 0 0-.273-1.517c-.064-.299-.22-1.012-.233-1.077-.272-.648-.285-1.31-.117-1.984.195-.894.298-1.802.22-2.71-.051-.518-.129-1.167-.272-1.685-.052.324-.272.505-.415.661-.376.545-.453.596-.778 1.154a3.327 3.327 0 0 0-.48 1.984c.014.078.014.169-.025.233-.078.182-.143.182-.208.182-.078 0-.207-.09-.233-.156-.026-.13-.013-.272 0-.415.078-.428.117-.855.052-1.283-.143-.83-.584-1.997-.947-2.49-.013.156-.168.61-.207.752-.208.92-.376 1.854-.065 2.8.078.234 0 .338-.26.403-.142.026-.298.039-.44.065-.688.078-1.349.233-1.893.661-.441.337-.921.48-1.466.532-.752.077-1.49.181-2.204.518a1.816 1.816 0 0 1-1.05.143.806.806 0 0 0-.35-.013 3.355 3.355 0 0 0-1.673.986.313.313 0 0 0-.078.35c.09.31.246.596.44.855.092.156.221.299.221.493-.013.13-.09.13-.116.13-.117.013-.402.039-.74.052 0 .13.338.181.558.26.052.025.35.025.402.064.156.09.052.376.182.506.285.285.778.389 1.18.402.337 0 .7.013 1.05-.026.7-.091 1.387-.091 2.088.026.557.103 1.037.35 1.192.933a1.867 1.867 0 0 1-.272 1.57c-.661.959-1.491 1.763-2.32 2.58-.455.427-2.387 2.334-2.931 2.787-.454.39-.882.765-1.193 1.271-.143.234-.299.48-.467.687-.182.234-.311.234-.454-.025-.194-.364-.389-.727-.519-1.103-.259-.713-.622-1.361-1.024-1.984-.272-.415-.584-.79-.778-1.244-.272-.649-.596-1.271-.869-1.907a1.398 1.398 0 0 0-.337-.48c-.389-.323-.843-.544-1.297-.764a.866.866 0 0 0-.648-.052c-1.167.35-2.347.635-3.553.804l-.272.039c-.506.064-.999.207-1.426.531a.714.714 0 0 1-.325.13c-.518.026-.96.298-1.387.532-.687.402-1.349.881-2.01 1.322l-.194.156c-.169.168-.169.285 0 .44.077.065.155.117.233.17.7.505 1.491.492 2.282.323.532-.13 1.037-.35 1.57-.518.232-.091.336-.273.388-.493.013-.078-.039-.376-.026-.454.195-.026.454.13.558.324.103.195.246.169.415.117.285-.065.57-.182.83-.311.246-.117.48-.26.713-.402.078-.052.946-.337 1.335-.337.234 0 .428.052.61.181.311.22.518.506.622.869.428 1.608.856 3.229 1.284 4.837.078.285.544 1.595.622 1.997.052.298.13.596.169.894.065.48.311.765.765.96.311.13.596.35.882.544.116.091.194.234.259.363.104.195.519.986.44 1.206-.427.312-.842.597-1.244.908-.687.558-1.349 1.128-2.023 1.673-.272.22-.544.454-.856.622-.96.493-1.595 1.258-1.88 2.308-.039.117-.09.234-.142.363-.35.778-.778 1.53-1.038 2.36a1.393 1.393 0 0 1-.531.713s0 .013-.013.013c-.04.052-.117.13-.143.169-.272.389-.467.804-.519 1.284a.588.588 0 0 1-.103.298c-.299.376-.454.467-.545.908-.052.207-.233.583-.272.778-.078.518-.052.855-.13 1.374-.013.078.13.519.13.597 0 .22.078.285.298.259h.026l.22-.039c.765-.182 1.245-.726 1.595-1.361.247-.428.402-.908.61-1.362.09-.207.051-.454-.091-.57-.013 0-.026-.013-.039-.026-.078-.078-.311-.182-.285-.234.103-.142.363-.22.557-.181.117.026.195.013.234-.052.13-.208.246-.428.324-.675.013-.077.039-.155.065-.233l.077-.272c.13-.428.286-.869.454-1.284.402-.998 1.09-1.763 2.1-2.191a.724.724 0 0 0 .26-.182c.48-.61 1.141-.92 1.88-1.154.947-.311 2.957-.972 3.022-.998.052.077.765 1.05 1.128 1.426 1.102 1.167 2.126 2.399 3.397 3.397.182.13.324.312.519.506-.117.09-.908.558-1.245.687-.83.298-1.582.74-2.295 1.258-1.024.752-1.66 1.738-1.712 3.06-.065 2.01 0 4.007.22 6.017.104.96.091 1.932-.064 2.891-.078.48-.337.83-.674 1.128a5.828 5.828 0 0 1-1.855 1.142c-.739.285-1.504.518-2.152.998-.013 0-.026.013-.052.026-.09.065-.182.143-.26.22-.012.013-.012.026-.025.04-.376.414-.7.855-1.245 1.101-.35.156-.661.454-.635.882a.601.601 0 0 1-.078.39c-.052.038-.104.103-.156.155a4.213 4.213 0 0 0-.519.648c-.038.078-.09.143-.142.22-.13.221-.272.428-.415.649-.143.233-.506.804-.532.869.363.285.765.337 1.167.337a3.57 3.57 0 0 0 2.205-.687c.181-.13.674-.61.752-.7.155-.182.557-.662.492-.818-.051-.168-.116-.324-.155-.48-.078-.272.013-.388.26-.298.401.156.674-.013.92-.298.078-.09.155-.181.233-.26.35-.35.74-.647 1.154-.894a7.12 7.12 0 0 1 1.154-.519c.558-.194 2.633-.79 3.073-.946.454-.169.688-.506.675-.999 0-.427-.013-.842-.026-1.27 0-.713-.052-1.44.078-2.166.13-.713.35-1.413.83-1.97.246-.299.544-.558.855-.779.325-.207.7-.35 1.05-.505.312-.143.429-.065.455.272.025.467.025.934.13 1.387.246 1.154.79 2.14 1.763 2.84 1.102.804 2.126 1.686 3.267 2.412.48.298.895.7 1.323 1.09.44.414.726.933.869 1.53.181.686.181 1.4.013 2.074-.091.324-.195.648-.299.972-.116.325-.233.662-.337.986-.026.052-.039.117-.065.168a.246.246 0 0 1-.064.13c-.091.117-.182.22-.247.35-.116.195 0 .454.04.726.012.065-.286.35-.312.376-.13.156-.233.312-.337.48-.234.39-.39.83-.493 1.284-.09.35-.168.713-.246 1.063-.065.285-.22.999-.22 1.076.453.156.881.04 1.283-.09a3.804 3.804 0 0 0 1.958-1.492c.13-.194.454-.855.506-.972.103-.285.064-.584 0-.869-.026-.104-.04-.168-.052-.22-.052-.143-.026-.143-.298-.13-.052 0-.078 0-.13-.013.13-.44.363-.44.804-.233.142-.052.44-.376.506-.804.025-.143.051-.298.064-.454v-.169c0-.207.013-.415.026-.622.052-1.05.195-2.088.454-3.125.208-.869.35-1.764.143-2.658a.561.561 0 0 1 0-.208c.064-.363-.104-.583-.402-.739-.856-.428-1.453-1.115-1.906-1.945a3.146 3.146 0 0 1-.415-1.53 77.634 77.634 0 0 0-.104-3.008c-.026-.597-.143-1.18-.104-1.777.026-.35.026-.7-.013-1.05-.026-.35-.103-.687-.155-1.037-.013-.065-.013-.143-.013-.208.026-.013.285.298.415.454.674.83 1.465 1.426 2.593 1.452.506.013 1.024-.026 1.543 0 .26.013.584.052.83.13.389.182.506.35.57.752.143.804.04 1.27-.388 1.88-.376.558-.649 1.18-.714 1.88-.09 1.038.208 1.894 1.103 2.49.531.35 1.089.648 1.633.986.208.116.402.246.584.389.311.233.428.544.337.92-.065.324-.169.636-.26.947-.077.233-.142.843 0 1.089a.654.654 0 0 1 .04-.506c.142-.272.285-.48.609-.7.143-.104.272-.246.337-.298.895-.96.947-2.295.13-3.255-.065-.078-.143-.142-.208-.22-.466-.506-.661-1.102-.518-1.777.09-.402.194-.804.285-1.193.026-.142.052-.272.078-.454.415.22.61.584.817.895.207.324.531.83.22 1.323.532-.26.545-.817.48-1.18-.026-.22-.09-.428-.143-.649-.181-.752-.155-1.452.195-2.178.324-.635.544-1.336.765-2.023a4.4 4.4 0 0 0-.234-3.436M41.196 37.85c-.338-.13-1.103-.44-.999-.843.156-.44.272-.505.804-.713.156.039.311.065.467.104.026.065.065.117.09.181-.259-.13-.674.052-.751.247-.065.285-.052.415.298.557.492.169.946-.155 1.076-.246l.117-.182c.116.013.298.156.324.22-.428.156-.869.701-1.426.675m24.78 7.586a1.997 1.997 0 0 0-.156-.169c-.545-.467-1.077-.946-1.647-1.387a8.03 8.03 0 0 1-.182-.143c-.389-.285-.778-.596-1.296-.674a.62.62 0 0 1-.299-.169c-.376-.363-.843-.557-1.348-.661a1.731 1.731 0 0 0-.247-.065c-.739-.026-1.465-.052-2.191-.065-.169-.013-.337-.013-.506-.013-.428-.013-.856-.039-1.283-.065-.973-.051-1.88.312-2.321 1.284-.273.623-.571 1.22-.87 1.829-.362.79-.738 1.569-1.101 2.347-.35.739-.7 1.478-1.05 2.204a.448.448 0 0 1-.092.155c-.064.065-.155.156-.22.143-.065 0-.143-.09-.182-.168-.051-.065-.051-.182-.09-.26-.208-.35-.39-.7-.61-1.037-.168-.247-.389-.48-.596-.713-1.206-1.479-2.412-2.944-3.8-4.266a10.674 10.674 0 0 0-1.737-1.4c-.233-.143-.44-.364-.622-.571-.208-.26-.169-.467.116-.649.415-.272.843-.544 1.284-.765.7-.35 1.44-.48 2.217-.35.817.143 1.543-.13 2.153-.713.22-.207.454-.402.661-.61a.52.52 0 0 0 .156-.285c0-.039-.156-.116-.234-.142-.298-.091-.324-.13-.22-.415.104-.286.233-.558.324-.83.13-.39.065-.61-.298-.778a5.856 5.856 0 0 0-.947-.337c-.363-.091-.752-.091-1.128.077-.285.13-.596.078-.895.026-.713-.116-1.413-.233-2.126-.35-.324-.052-.635-.116-.908-.324-.493-.402-1.05-.558-1.673-.532a4.865 4.865 0 0 0-.453-.051c-.143-.013-.299-.026-.441-.065-.247-.04-.337-.143-.26-.39.325-.946.169-1.88-.038-2.8-.026-.143-.195-.584-.195-.74-.376.494-.817 1.674-.96 2.516-.077.428-.038.856.026 1.284a.898.898 0 0 1 0 .415c-.025.065-.155.169-.233.169-.065 0-.13 0-.207-.182a.468.468 0 0 1-.013-.233 3.35 3.35 0 0 0-.467-1.971c-.324-.558-.402-.61-.765-1.141-.143-.143-.376-.338-.428-.649-.143.519-.22 1.167-.272 1.699-.091.908 0 1.815.207 2.697.13.584.143 1.18-.052 1.75-.454 1.103-.648 2.244-.661 3.424 0 .804.09 1.595.233 2.386.285 1.413.791 2.71 1.673 3.838.298.389.557.817.752 1.27.22.545.454 1.09.661 1.634.39.843.675 2.697.778 3.514a8.897 8.897 0 0 1-.09 3.1 42.608 42.608 0 0 1-1.414 5.186 19.179 19.179 0 0 0-.946 4.435 7.765 7.765 0 0 1-.273 1.413c-.298 1.076-1.011 1.738-2.087 2.01-.234.065-.48.09-.726.13-.545.103-1.038 0-1.479-.324-.467-.325-.946-.649-1.413-.986-1.841-1.27-4.175-.765-5.589.817a5.103 5.103 0 0 0-1.128 2.178c-.026.117-.052.22-.065.338-.13.816-.181 1.154.026 2.256.104.7.363 1.348.648 1.997.35.765.688 1.53.96 2.334a7.342 7.342 0 0 1 .35 3.67 2.887 2.887 0 0 0 .156 1.555c.168.428.843 1.064 1.31 1.31-.39-.311-.429-.493-.454-.558a.876.876 0 0 1 .103-.868c.117-.156.234-.299.363-.441.35-.441.636-.92.856-1.44.195-.44.311-.907.298-1.4 0-.207.026-.415.052-.622.013-.13.052-.26.195-.26.142.013.168.156.168.273a3.789 3.789 0 0 1-.31 1.958c-.079.142-.144.298-.221.44-.13.26-.195.532.026.753.22.207.48.194.778.038-.04-.025-1.142.052.505-1.633.467-.441.688-.986.752-1.595.078-.662-.039-1.284-.285-1.88-.13-.273-.26-.532-.376-.817-.143-.325-.104-.415.22-.571a1.85 1.85 0 0 0 .87-.765c.038-.065.051-.13.103-.233-.415.415-.74.363-1.011.246-.286-.156-.441-.233-.584-.882-.078-.415.195-1.102.57-1.296.273-.143.584-.247.895-.312.454-.077.921-.116 1.388-.181.467-.078.946-.156 1.413-.26a3.158 3.158 0 0 0 1.336-.66c.116-.092.233-.182.428-.312-.013.156-.195 1.699-.195 2.373.013.908.09 1.815.078 2.723a12.21 12.21 0 0 1-.376 3.06 4.37 4.37 0 0 1-.7 1.465c-.402.558-.804 1.115-1.388 1.517-.454.325-.583.74-.428 1.271.493 1.634.791 3.307 1.103 4.992 0 .078.013.156.025.234.013.065.026.13.052.181.104.338.337.57.454.61.454-.169.7-.182.804.168.013.052-.09.052-.13.052-.272 0-.246 0-.298.143a1.173 1.173 0 0 0-.065.22c-.064.299-.103.584 0 .87.052.129.363.777.493.959.09.13.182.246.272.35.428.505.973.869 1.673 1.089.013 0 .026 0 .026.013.402.117 1.27.09 1.232-.143-.013-.103-.039-.233-.065-.376-.052-.194-.09-.389-.117-.505 0-.026-.013-.052-.013-.078-.077-.324-.142-.662-.22-.986a4.107 4.107 0 0 0-.493-1.258 2.987 2.987 0 0 0-.324-.466c-.013-.013-.026-.04-.065-.065-.09-.09-.233-.234-.246-.324-.026-.091-.026-.584-.04-.688-.025-.09-.103-.31-.168-.376-.052-.051-.155-.155-.22-.168-.065-.026-.104-.04-.156-.078a.547.547 0 0 1-.285-.324c-.311-.843-.519-1.712-.389-2.632A3.057 3.057 0 0 1 38.07 83c.247-.22.506-.428.778-.623 1.206-.869 2.321-1.854 3.437-2.827.44-.389.79-.855 1.063-1.374.454-.895.61-1.828.57-2.801-.013-.35 0-.687.169-1.024.13-.26.207-.299.44-.143.3.22.597.454.934.635.623.338.96.921 1.258 1.505.234.48.363 1.024.519 1.543.246.894.337 1.802.039 2.723-.156.531.026.881.519 1.089.207.078.427.13.635.194 1.063.337 2.178.506 3.15 1.102.079.04 1.259.766 1.544 1.323 0 0 .013.013.013.026.26.272.687.039 1.102-.13.246-.103.337 0 .26.286a13.4 13.4 0 0 1-.156.492c-.04.156.065.234.181.402.117.156.247.299.324.376 0 .013.013.013.013.013.104.117.571.545.74.662.13.09.246.155.376.22.09.039.168.078.259.117.48.207.998.298 1.582.26.402-.027 1.011-.208 1.037-.597a18.051 18.051 0 0 1-.415-.649l-.428-.622a4.714 4.714 0 0 0-.661-.843c-.052-.052-.324-.337-.376-.376-.376-.272-.622-.648-.908-.985a.836.836 0 0 1-.155-.364V82.6c-.156-.623-.584-.947-1.193-1.064-.117-.026-.246-.052-.363-.103-.7-.286-1.4-.584-2.088-.882a4.532 4.532 0 0 1-.7-.376c-.596-.428-.908-1.05-.934-1.777-.039-.96-.026-1.932.104-2.904.169-1.154.324-2.308.272-3.462-.025-.61-.077-1.206-.207-1.79a5.199 5.199 0 0 0-.83-1.958c-.35-.493-.739-.946-1.27-1.245-.714-.402-1.492-.713-2.322-.855l-.726-.117c-.298-.065-.376-.246-.207-.519a.693.693 0 0 1 .168-.168c1.063-.895 1.893-1.971 2.58-3.164.286-.48.52-.999.779-1.517.13-.273.168-.286.453-.273.078 0 .143.013.208.026.583.169 1.154.35 1.725.519.557.155 1.115.324 1.66.48.544.142 1.101.285 1.633.454.363.116.661.337.92.596.299.311.597.61.908.895.752.7 1.258 1.257 1.492 2.256.025.13.051.246.064.376.026.104.04.194.052.298.078.182.169.35.286.506.038.065.116.078.233.052.194-.065.48-.013.558.142.051.117-.182.156-.273.234v.013c-.013 0-.026.026-.039.026-.142.13-.168.363-.077.57.207.441.389.92.635 1.336.117.181.233.35.363.505.324.376.726.662 1.27.753.079 0 .143.025.221.025h.039c.207.013.285-.064.285-.272-.013-.44-.09-.869-.13-1.115-.038-.233-.142-.635-.207-.895a4.866 4.866 0 0 0-.363-.998 1.106 1.106 0 0 0-.181-.272c0-.013-.013-.026-.026-.04a.453.453 0 0 1-.104-.285 2.064 2.064 0 0 0-.13-.505 2.89 2.89 0 0 0-.428-.752l-.026-.026c-.051-.091-.09-.182-.142-.273-.39-.7-.713-1.439-.869-2.243-.09-.519-.272-.985-.428-1.465-.13-.402-.363-.752-.739-.96-.635-.363-1.167-.855-1.725-1.31-.739-.609-1.49-1.18-2.217-1.815-.596-.518-1.232-.985-1.945-1.348a4.608 4.608 0 0 1-.324-.182c.117-.259.181-.505.311-.726.182-.35.48-.57.869-.622.687-.091 1.102-.493 1.31-1.128.168-.532.337-1.064.505-1.582.415-1.284.61-2.594.882-3.89.169-.791.363-1.582.843-2.282.376-.558.882-.96 1.53-1.142.7-.194 1.387-.13 2.049.078l.233.078c.22.09.454.182.687.233a.76.76 0 0 0 .169.026c.026-.013.039-.039.052-.064.13-.182.415-.312.596-.26.013.065-.065.298-.078.402v.04c.013.232.091.427.325.53.492.234.96.506 1.478.675.752.26 1.53.35 2.308-.078.078-.052.168-.09.246-.142.195-.143.208-.26.052-.441m31.12 44.32c-2.36-.596-5.601-1.867-10.827.26-5.212 2.126-6.068 2.022-8.234 2.022-2.165 0-3.008.104-8.234-2.022-5.225-2.127-8.467-.856-10.827-.26-2.606.636-8.299 3.112-9.479.247.286 1.582 1.634 3.63 2.321 4.745.908 1.492 1.556 1.816 3.086 1.453 1.193-.273 2.736-.726 3.748-1.05 1.27-.39 3.021-.779 4.85-.714 1.53.052 3.799.493 6.172 1.466 3.008 1.244 5.459 1.517 8.363 1.49 2.905.027 5.356-.246 8.364-1.49 2.373-.973 4.655-1.414 6.172-1.466 1.828-.065 3.592.324 4.85.713 1.024.325 2.554.778 3.747 1.05 1.53.364 2.191.04 3.1-1.452.673-1.115 2.022-3.163 2.307-4.732-1.167 2.852-6.872.376-9.479-.26m2.736.649.013.013c.273-.376.7-1.686 1.025-2.918-.13.467-.662 2.425-1.038 2.905m-.013.324-.272-.337.078-.065c.233-.182.726-1.686 1.063-2.983l.026-.103.415.103-.026.104c-.168.674-.765 2.879-1.206 3.216zm.013-.156-.142-.168c.285-.22.83-1.984 1.102-3.035l.207.052c-.064.286-.726 2.814-1.167 3.151m2.71-1.05c-.324.817-.48 1.284-.531 1.478.078-.324.415-1.18.531-1.478zm-.752 1.724-.013-.103c-.025-.156.182-.765.61-1.803l.039-.09.402.168-.04.09c-.336.818-.57 1.505-.583 1.596v.09l-.09.014zm.091-.116c-.026-.195.415-1.284.597-1.738l.207.078c-.285.713-.583 1.517-.583 1.634zm4.72-1.997c.22 1.44-1.219 3.786-2.088 5.187-.09.142-.181.285-.246.402-.506.816-.92 1.27-1.413 1.465.492-.195.92-.649 1.413-1.453.065-.103.13-.207.194-.324l.052-.09c.882-1.4 2.321-3.748 2.088-5.187zM78.15 97.38h.286c2.256 0 4.785-.182 7.962-1.491 2.1-.87 4.408-1.414 6.172-1.466 1.932-.065 3.721.363 4.85.713.376.117 2.269.714 3.747 1.05.48.117.856.156 1.193.13-.337.026-.7-.013-1.193-.13-1.426-.323-3.229-.881-3.747-1.05-1.129-.35-2.918-.778-4.85-.713-1.764.052-4.072.597-6.172 1.466-3.177 1.31-5.706 1.49-7.962 1.49h-.285zm.286.22h-.402l-.104-.013v-.428h.506c2.23 0 4.733-.168 7.884-1.465 2.114-.882 4.448-1.44 6.25-1.491 1.958-.065 3.773.376 4.927.726.506.169 2.308.726 3.722 1.05.363.091.661.13.92.13.766 0 1.258-.376 1.933-1.491.077-.13.168-.26.259-.415.869-1.414 2.334-3.773 2.036-5.122l-.013-.117.415-.09.026.103c.337 1.517-1.18 3.981-2.101 5.46l-.052.09c-.065.104-.13.22-.194.311-.753 1.232-1.375 1.699-2.322 1.699-.285 0-.609-.052-1.01-.143-1.48-.337-3.385-.933-3.761-1.05-1.115-.35-2.879-.765-4.772-.713-1.75.065-4.033.596-6.107 1.465-3.216 1.323-5.758 1.504-8.04 1.504m0-.104c-.13 0-.272-.013-.402-.013v-.22c2.775.039 5.252-.207 8.325-1.478 2.1-.869 4.422-1.414 6.211-1.478 1.932-.052 3.721.363 4.888.726.52.168 2.309.726 3.735 1.05 1.478.337 2.088.052 2.982-1.413.078-.13.156-.26.247-.402.881-1.427 2.36-3.826 2.048-5.213l.22-.052c.325 1.478-1.18 3.916-2.087 5.381-.09.143-.168.273-.246.402-.934 1.53-1.66 1.868-3.216 1.505-1.426-.325-3.229-.882-3.747-1.05-1.141-.35-2.918-.766-4.811-.714-1.764.052-4.059.61-6.146 1.465-2.957 1.22-5.369 1.504-8 1.504m-.3-5.459h.403c1.854 0 2.956-.09 7.741-2.035 1.945-.804 3.76-1.18 5.563-1.18 1.815 0 3.293.402 4.473.713l.052.013c.26.065.493.13.726.194.48.117 1.077.298 1.712.493 1.595.506 3.592 1.115 5.148 1.115 1.348 0 2.178-.44 2.554-1.348a1.485 1.485 0 0 0 0-1.154c-.428-1.025-1.854-1.634-2.14-1.751-.518-.194-1.322-.428-2.035-.428-.674 0-1.128.195-1.362.558-.142.233-.181.466-.116.7.13.48.687.96 1.724 1.504h.013c-1.037-.545-1.608-1.037-1.724-1.517a.823.823 0 0 1 .103-.687c.234-.363.688-.545 1.362-.545.61 0 1.361.156 2.036.428.285.104 1.698.726 2.14 1.738.155.376.155.752 0 1.14-.377.908-1.233 1.362-2.555 1.362-1.556 0-3.553-.622-5.148-1.115l-.026-.013a29.544 29.544 0 0 0-1.686-.493c-.246-.052-.505-.13-.765-.194-1.193-.324-2.684-.713-4.486-.713-1.803 0-3.618.376-5.576 1.167-4.772 1.958-5.874 2.035-7.715 2.035h-.415zm.403.208h-.61v-.428h.623c1.815 0 2.891-.09 7.637-2.023 1.984-.804 3.826-1.193 5.654-1.193 1.841 0 3.332.402 4.538.726.26.065.519.13.765.195.48.117 1.077.311 1.699.493l.026.013c1.582.492 3.553 1.102 5.083 1.102 1.245 0 2.01-.39 2.347-1.22a1.188 1.188 0 0 0 0-.985c-.39-.933-1.75-1.504-2.01-1.62-.648-.26-1.388-.415-1.958-.415-.402 0-.934.077-1.167.453a.639.639 0 0 0-.104.52c.117.427.7.894 1.712 1.425l.104.04-.195.388-.104-.039c-1.167-.596-1.776-1.14-1.932-1.698-.078-.298-.026-.584.143-.869.272-.428.79-.648 1.543-.648.74 0 1.582.233 2.114.44.298.117 1.789.766 2.256 1.855.181.428.181.882 0 1.322-.402.986-1.323 1.492-2.75 1.492-1.594 0-3.604-.623-5.212-1.129a29.688 29.688 0 0 0-1.698-.492c-.234-.065-.48-.13-.727-.195l-.052-.013c-1.18-.31-2.632-.713-4.421-.713-1.777 0-3.566.39-5.485 1.167-4.824 1.971-5.939 2.049-7.82 2.049m0-.104h-.505v-.22h.26c1.97 0 2.956.013 7.935-2.023 4.707-1.92 7.845-1.09 10.127-.467.26.065.519.143.765.195.493.13 1.09.31 1.712.505 2.814.869 6.652 2.075 7.573-.181.142-.35.142-.713 0-1.064-.415-.972-1.803-1.569-2.075-1.672-1.025-.415-2.75-.74-3.268.078-.116.207-.155.401-.09.596.116.467.7.947 1.763 1.491l-.104.195c-1.14-.584-1.737-1.103-1.88-1.621a.977.977 0 0 1 .13-.778c.635-.999 2.58-.545 3.527-.169.298.117 1.75.74 2.191 1.79.182.402.182.83.013 1.244-.998 2.425-4.953 1.193-7.832.299a33.185 33.185 0 0 0-1.712-.493c-.246-.065-.505-.13-.778-.208-2.243-.609-5.342-1.426-9.971.454-4.824 1.971-5.939 2.05-7.78 2.05M55.2 87.5c.324 1.232.752 2.529 1.037 2.918v-.013c-.376-.48-.908-2.438-1.037-2.905zm1.063 3.229-.09-.065c-.442-.35-1.038-2.542-1.207-3.216l-.026-.104.415-.103.026.103c.337 1.297.843 2.801 1.063 2.983l.091.065zm-.026-.156c-.428-.337-1.09-2.865-1.167-3.15l.208-.053c.272 1.05.816 2.814 1.102 3.035zm-2.178.428h.013c-.052-.194-.208-.661-.545-1.478v.013c.117.285.467 1.14.532 1.465m.22.246-.415-.051v-.091c0-.104-.246-.778-.583-1.595l-.04-.104.403-.155.052.103c.415 1.025.622 1.634.596 1.79zm-.09-.116-.221-.026c.013-.117-.298-.92-.584-1.634l.208-.078c.181.454.622 1.543.596 1.738m8.934 3.28c.13 0 .247.013.376.013 1.777.052 4.072.597 6.173 1.466 3.19 1.31 5.705 1.49 7.961 1.49h.299-.273c-2.269 0-4.798-.18-7.974-1.49-2.101-.87-4.41-1.414-6.186-1.466-1.932-.065-3.721.363-4.85.713-.518.169-2.32.714-3.747 1.05-.389.092-.687.13-.96.13-.855 0-1.412-.414-2.126-1.594-.064-.104-.142-.22-.22-.338l-.026-.064c-.882-1.414-2.321-3.748-2.1-5.187-.221 1.44 1.218 3.786 2.087 5.187l.039.077c.078.117.156.22.207.325.727 1.18 1.284 1.594 2.14 1.594.272 0 .583-.038.96-.13 1.478-.336 3.384-.933 3.747-1.05 1.05-.324 2.697-.726 4.473-.726m14.51 3.19c-2.269 0-4.823-.181-8.04-1.504-2.074-.856-4.356-1.4-6.107-1.452-1.893-.065-3.656.35-4.771.7-.363.117-2.282.713-3.76 1.05a3.93 3.93 0 0 1-1.012.143c-.934 0-1.57-.467-2.321-1.699-.065-.103-.13-.22-.208-.337l-.038-.065c-.908-1.478-2.438-3.929-2.101-5.459l.026-.103.428.103-.026.091c-.298 1.349 1.167 3.721 2.049 5.135l.025.065c.078.13.156.233.22.35.675 1.115 1.168 1.491 1.946 1.491.246 0 .544-.039.92-.13 1.414-.324 3.203-.881 3.722-1.05 1.141-.35 2.956-.791 4.914-.726 1.803.052 4.137.61 6.263 1.491 3.138 1.297 5.654 1.465 7.897 1.465h.48l.013.441h-.519m0-.104c-2.632 0-5.044-.285-8-1.504-2.088-.856-4.383-1.413-6.134-1.465-1.906-.052-3.67.363-4.823.713-.519.169-2.321.726-3.748 1.05-1.556.364-2.282.026-3.215-1.504-.078-.13-.156-.259-.247-.402-.907-1.465-2.412-3.903-2.074-5.38l.207.051c-.311 1.388 1.167 3.786 2.049 5.213.09.142.181.272.26.402.88 1.465 1.503 1.75 2.982 1.413 1.413-.324 3.202-.882 3.721-1.05 1.167-.363 2.956-.778 4.888-.726 1.79.064 4.11.61 6.225 1.478 3.073 1.27 5.536 1.504 8.311 1.478v.22c-.13 0-.26.013-.402.013m-13.407-8.674c1.802 0 3.63.389 5.575 1.18 4.785 1.945 5.887 2.035 7.729 2.035l.402-.013h-.39c-1.854 0-2.956-.077-7.74-2.022-1.946-.804-3.774-1.193-5.576-1.193-1.803 0-3.281.402-4.474.726-.285.078-.532.142-.778.194-.48.117-1.063.299-1.673.493l-.039.013c-1.595.493-3.578 1.115-5.147 1.115-1.323 0-2.179-.454-2.542-1.348a1.43 1.43 0 0 1 0-1.154c.428-1.012 1.841-1.621 2.127-1.738.674-.272 1.439-.428 2.035-.428.662 0 1.129.182 1.362.545.143.233.182.454.117.7-.13.467-.7.96-1.725 1.504 1.05-.545 1.595-1.024 1.725-1.504.065-.233.026-.467-.117-.7-.233-.363-.687-.545-1.362-.545-.7 0-1.517.22-2.035.428-.286.104-1.699.713-2.127 1.738a1.43 1.43 0 0 0-.013 1.154c.376.907 1.206 1.348 2.555 1.348 1.569 0 3.553-.622 5.147-1.115a33.186 33.186 0 0 1 1.712-.493c.233-.065.467-.13.713-.194l.065-.013c1.18-.324 2.658-.713 4.474-.713m13.304 3.423c-1.88 0-2.996-.078-7.82-2.049-1.906-.778-3.708-1.154-5.484-1.154-1.777 0-3.242.39-4.422.7l-.052.013c-.246.065-.493.13-.726.195-.467.116-1.063.298-1.686.492-1.62.506-3.63 1.129-5.225 1.129-1.427 0-2.347-.506-2.75-1.492a1.674 1.674 0 0 1 0-1.322c.467-1.09 1.959-1.738 2.257-1.854.531-.208 1.374-.441 2.113-.441.753 0 1.271.22 1.543.648.17.285.22.57.143.869-.155.557-.765 1.102-1.932 1.698l-.09.04-.195-.39.09-.039c1.012-.531 1.596-.998 1.712-1.426a.693.693 0 0 0-.09-.519c-.234-.376-.779-.453-1.18-.453-.571 0-1.31.155-1.959.415-.259.103-1.62.687-2.01 1.62a1.188 1.188 0 0 0 0 .986c.338.817 1.103 1.219 2.348 1.219 1.53 0 3.5-.61 5.083-1.102l.039-.013a29.545 29.545 0 0 1 1.685-.493c.247-.052.493-.117.752-.195 1.22-.324 2.71-.726 4.552-.726 1.828 0 3.682.39 5.653 1.193 4.746 1.932 5.835 2.023 7.664 2.023h.596v.428zm0-.104c-1.842 0-2.957-.078-7.78-2.049-4.63-1.88-7.716-1.063-9.972-.453-.272.077-.532.142-.778.207-.48.117-1.076.298-1.699.493-2.891.894-6.846 2.126-7.832-.298a1.49 1.49 0 0 1 0-1.245c.441-1.05 1.906-1.673 2.192-1.79.946-.376 2.904-.83 3.527.169.155.246.207.506.13.778-.143.519-.74 1.037-1.88 1.62l-.092-.194c1.05-.544 1.634-1.024 1.764-1.49a.723.723 0 0 0-.104-.597c-.518-.817-2.23-.493-3.267-.078-.273.104-1.66.7-2.075 1.672-.143.35-.143.714 0 1.064.92 2.256 4.759 1.05 7.572.181a48.613 48.613 0 0 1 1.712-.505c.246-.052.506-.13.778-.195 2.282-.622 5.407-1.452 10.114.467 4.992 2.036 5.978 2.023 7.936 2.023h.26v.22h-.506M92.272 13.9l-.052-.492-6.406.013 5.913-2.451-.142-.467-6.276 1.258 5.329-3.553-.233-.44-5.913 2.463 4.538-4.526-.324-.389-5.317 3.566 3.566-5.316-.376-.311-4.538 4.525 2.464-5.913-.428-.233-3.566 5.33L81.769.686l-.467-.142-2.45 5.912.012-6.405L78.371 0l-1.244 6.289L75.882 0l-.493.052.013 6.405-2.45-5.912-.468.142 1.258 6.276-3.553-5.33-.44.234 2.463 5.913-4.525-4.525-.39.31 3.567 5.317-5.317-3.566-.311.39 4.525 4.525-5.913-2.464-.233.441 5.33 3.553-6.276-1.258-.143.467 5.913 2.45-6.406-.012-.052.492 6.29 1.245-6.29 1.245.052.493 6.406-.013-5.913 2.45.143.467 6.275-1.257-5.329 3.565.233.428 5.913-2.45-4.525 4.525.311.376 5.317-3.566-1.103 1.66c.078.026.247-.104.337-.065.169-.194.402-.389.675-.57l1.893-2.827-5.29 3.553 4.512-4.5L66 21.097l5.29-3.54-6.237 1.258 5.887-2.438h-6.366l6.237-1.232-6.237-1.232h6.366l-5.887-2.424 6.237 1.244-5.29-3.54 5.887 2.451-4.512-4.5 5.264 3.528v-.026l-3.514-5.252 4.5 4.5-2.451-5.874 3.54 5.29-1.245-6.237 2.425 5.887V2.593l1.232 6.25 1.244-6.25-.013 6.367 2.425-5.887-1.245 6.237 3.54-5.29-2.437 5.874 4.5-4.5-3.554 5.304 5.29-3.553-4.499 4.5 5.874-2.451-5.29 3.54 6.237-1.245-5.887 2.424h6.38l-6.25 1.232 6.25 1.232h-6.38l5.887 2.438-6.237-1.258 5.29 3.54-5.874-2.438 4.5 4.5-1.699-1.154-3.644-2.438 1.388 2.062.116.181s.22.091.545.311l.804.74-1.037-1.479 1.076.713 4.279 2.88.324-.377-4.538-4.525 5.913 2.45.233-.428-5.33-3.565 6.277 1.257.142-.466-5.913-2.451 6.406.013.052-.493-6.29-1.245zM81.808 9.96H72.47s-1.076 10.567 4.669 11.657c5.744-1.09 4.668-11.657 4.668-11.657m-1.427 1.504c.013.96-.026 2.295-.246 3.67-.454 2.826-1.465 4.486-2.995 4.927-2.983-.87-3.268-6.082-3.23-8.597h6.471m-4.007 4.227a.296.296 0 0 1-.142.039l-.065-.026c-.013-.013-.039-.026-.052-.039-.013 0-.026-.013-.039-.026-.013-.013-.026-.039-.039-.052 0-.013-.013-.039-.013-.065 0-.026.013-.064.013-.09.013-.026.026-.052.052-.078.013-.013.026-.04.065-.078.013-.013.026-.026.026-.039l.09.039.26.246c-.013.013-.026.04-.039.052-.039.052-.078.078-.117.117m-.83-.13h-.051.026l.013-.013h.025c0 .013-.012.013-.012.013m4.032 1.05-1.685-1.283 1.387.661-1.206-.998s.57.246 1.206.622c-.454-.48-1.219-1.206-1.491-1.413-.285-.208-1.349-.973-1.504-1.284-.247-.493-.363-.752-.895-.752-.376 0-.687.389-.687.389h-.532l.467.376s-.078.843.117 1.206c.194.376 1.05.908 1.05.908l.26.181-.027.039c-.013.013-.038.026-.064.052a.394.394 0 0 1-.091.065.463.463 0 0 1-.117.052c-.026.013-.065.013-.09.025h-.053c-.025 0-.051.013-.09.013h-.091c-.026.013-.052.013-.065.013h-.104c-.012 0-.025.013-.038.013-.013.013-.026.013-.026.026-.013.013-.013.04-.013.052.013 0 .026 0 .026-.013.013-.013.026-.013.039-.013.012 0 .025 0 .038.013h.065c.013-.013.026-.013.04-.013l.077.026c-.039 0-.065.013-.09.026-.014.013-.027.039-.04.052a.184.184 0 0 0-.026.078c0 .026-.013.052-.013.09.013 0 .026-.013.026-.013 0-.012.013-.012.013-.025 0-.013 0-.026.013-.04 0-.012.013-.012.013-.012a.903.903 0 0 1 .169-.065.64.64 0 0 0 .168-.052c.013 0 .026-.013.052-.013.013-.013.026-.026.04-.026.012-.013.025-.026.05-.026.014 0 .027-.013.04-.013.013 0 .026.013.026.013.013 0 .013.013.013.026.013 0 .013.013.013.026.013.013.013.026.026.039a.22.22 0 0 0 .077.078.207.207 0 0 0 .104.039.1.1 0 0 1-.065.026c-.026 0-.052.013-.078.013-.025.012-.051.025-.064.038a.1.1 0 0 0-.026.065v.026s0-.013.013-.013c0 0 .013-.013.013-.026 0 0 .013 0 .013-.013h.025c.04 0 .078-.013.117-.013.04 0 .09-.013.13-.026.026 0 .052-.012.078-.038.026-.013.052-.013.077-.013h.013a.302.302 0 0 1-.09.09c-.026.026-.065.052-.091.078a.303.303 0 0 0-.09.09.326.326 0 0 0-.027.13v.052s0 .013.013.013v-.013c.013-.025.04-.064.052-.09.026-.026.052-.065.078-.091.026-.039.065-.065.09-.09.04-.027.065-.053.091-.066.013-.026.04-.039.065-.064.013-.026.04-.052.052-.078h.013s.013.013.026.039l.065.064a.22.22 0 0 0 .078.078l.077.04h.04c.012 0 .025 0 .025.012.013 0 .026 0 .026.013.013 0 .013.013.026.026v-.052c0-.013-.013-.013-.013-.026-.039-.026-.065-.052-.09-.065-.027-.013-.053-.039-.079-.052a.344.344 0 0 1-.064-.077.244.244 0 0 1-.026-.104v-.052c0-.013 0-.026.013-.052.013-.013.026-.039.039-.065l.804.376 1.594 1.66-.713-1.4zm5.433 14.718c-.168-.441-.22-.791-.22-.791s-.052.285-.09.882c-.027.57-.857 5.705 0 7.56.142.323.427.557.868.648 0 0-.804-.247-.895-1.258-.103-.934-.078-1.984-.039-2.775.026-.986.143-1.815.156-2.088.026-.531.22-1.595.22-1.595s.895 1.258.649.921c-.234-.35.868 1.102.868 1.102s-1.322-2.165-1.517-2.606m-.855-6.354a1.67 1.67 0 0 1-.973-.454c-.311-.376-.506-.61-.506-1.283-.233.674-.052 1.011.273 1.504-.35.09-.532.065-1.077-.091-.674-.195-.881-1.05-1.05-1.686 0 0-.246-.856.208-1.037.453-.169.855-.143 1.076-.143.22 0 .596.052.972.143h.013c.39.078.843.519.999.882.168.402.285.855.298 1.296.013.208.26.726.532.791-.234.182-.558.104-.765.078m-6.86-.363c-.324.013-.467 0-.7-.117-.234-.116-.674-.298-.843-1.517-.324.662.052 1.349.363 1.673-.83.104-1.361-.026-1.854-.584-.402-.427-.57-1.076-.597-1.452-.039-.752.934-.765 1.505-.817.726-.039 1.244.026 1.711.363.324.312.454.467.61 1.258.038.246.181.713.622.973-.35.207-.532.194-.817.22m-7.028.895c-.22-.13-.843-.428-1.037-1.076-.117.7.843 1.31.843 1.31-.532.168-.727.168-1.012.09-.583-.156-.96-.674-.96-1.31.053-.985.7-1.322 1.129-1.322.363 0 .648.103.843.246.765.532.44 1.647 1.569 1.88-.325.286-.96.402-1.375.182m17.13-1.388s-.17-1.31-1.103-1.724c-.856-.376-1.452-.39-1.686-.337-.22.039-.389.116-.48.155-.259-.22-.816-.454-.816-.454l-.428-.13c-.726-.155-1.102-.129-1.362-.103-.454.078-.92.156-.92.156-.947-.467-2.321-.338-3.385.233.013.026-.557-.415-1.841-.415-.973 0-1.738.117-2.01.648a2.143 2.143 0 0 0-.804-.285c-.078-.013-.155-.013-.233-.026-.623 0-1.245.247-1.738.57a3.95 3.95 0 0 0-.687.584c-.078-.039-.156-.078-.233-.09-1.492-.467-3.1 2.074-.843 3.254.415.195 1.011.052 1.296-.104 0 0 1.7-.363 1.842-.428.544-.272 2.061-.298 2.412-.363-.169.182 3.54-.051 4.149-.077.545.013 8.636.466 8.467.44.13-.207.636-.363.402-1.504M71.914 22.68c-.026.039-.039.078-.065.117.182-.078.078 0 .182-.117zm2.152.298c-.077-.026-.155-.039-.246-.065.143.13.065.104.246.065m-2.632.234h1.012c-.195-.22-.377-.22-.714-.299-.103.104-.194.208-.298.299m11.307-1.582-.13-.13v.039zM241.65 291.442c-2.347 6.055-4.434 8.26-8.986 8.26-1.206 0-2.398-.117-3.54-.532v-4.668c.96.298 1.984.713 2.996.713 2.1 0 3.241-1.024 4.188-2.814l2.1-5.264-12.279-30.796h5.757l9.038 25.337h.117l8.688-25.337h5.394zm-23.768-35.101h6.16v4.5h-6.16v19.216c0 2.347.649 2.762 3.825 2.762h2.334v4.487h-3.89c-5.264 0-7.365-1.077-7.365-6.77V260.84h-5.264v-4.5h5.264v-9.27h5.096zm-18.594 0h5.096v30.965h-5.096zm5.083-5.563h-5.083v-6.237h5.083zm-24.326 5.563h4.785v6.535h.13c2.45-4.98 5.86-7.43 11.371-7.248v5.394c-8.208 0-11.203 4.668-11.203 12.513v13.77h-5.083zm-19.528 27.191c5.33 0 9.634-4.188 9.634-11.67 0-7.547-4.305-11.735-9.634-11.735-5.342 0-9.647 4.188-9.647 11.735 0 7.482 4.305 11.67 9.647 11.67m0-27.904c9.816 0 15.029 7.131 15.029 16.234 0 9.038-5.213 16.17-15.029 16.17-9.829 0-15.041-7.132-15.041-16.17 0-9.103 5.212-16.234 15.041-16.234m-45.15-11.087h5.083v16.351h.13c1.672-3.708 6.042-5.264 9.763-5.264 8.143 0 10.659 4.668 10.659 11.32v20.358h-5.096V266.35c0-3.773-2.399-6.224-6.289-6.224-6.172 0-9.167 4.124-9.167 9.7v17.479h-5.083zm-9.959 11.8h6.16v4.5h-6.16v19.216c0 2.347.648 2.762 3.825 2.762h2.334v4.487h-3.89c-5.264 0-7.365-1.077-7.365-6.77V260.84h-5.264v-4.5h5.264v-9.27h5.096zm-13.46 30.965H87.15v-4.902h-.117c-2.152 3.825-5.627 5.628-10.062 5.628-8.143 0-10.659-4.681-10.659-11.32V256.34h5.083v20.967c0 3.773 2.4 6.224 6.29 6.224 6.171 0 9.167-4.123 9.167-9.699v-17.492h5.096zm-54.434-17.661H52.01l-7.132-19.943h-.117zm4.253-25.104h6.289l16.714 42.765H58.48l-4.668-12.877H35.724l-4.798 12.877h-5.874zm148.924-16.014c-2.334 6.043-4.435 8.26-8.986 8.26-1.193 0-2.399-.117-3.527-.532v-4.668c.96.298 1.97.713 2.982.713 2.1 0 3.242-1.024 4.201-2.813l2.101-5.278-12.28-30.783h5.745l9.038 25.337h.13l8.687-25.337h5.381zm-23.613-20.241c0-5.46-2.399-11.087-8.804-11.087-6.535 0-9.168 5.33-9.168 11.255 0 5.576 2.036 11.813 8.74 11.813 6.717 0 9.232-6.172 9.232-11.981m5.031 13.472c0 10.063-4.616 15.21-14.38 15.21-5.809 0-12.513-2.334-12.811-9.102H150c.246 3.721 4.681 5.03 8.026 5.03 6.652 0 9.285-4.797 9.285-11.734v-2.036h-.117c-1.673 3.773-5.744 5.628-9.647 5.628-9.22 0-13.836-7.249-13.836-15.69 0-7.313 3.605-16.351 14.315-16.351 3.89 0 7.366 1.737 9.233 5.147h.052v-4.434h4.797zm-45.28-28.332h4.785v6.535h.13c2.45-4.98 5.86-7.43 11.372-7.248v5.394c-8.208 0-11.19 4.668-11.19 12.513v13.77h-5.097zm-9.491 12.526c-.247-4.863-3.903-8.753-8.922-8.753-5.329 0-8.506 4.02-8.869 8.753zm4.901 8.623c-1.374 6.82-6.276 10.542-13.226 10.542-9.88 0-14.562-6.834-14.86-16.3 0-9.284 6.107-16.104 14.562-16.104 10.957 0 14.315 10.243 14.017 17.725H99.546c-.181 5.395 2.879 10.18 9.647 10.18 4.189 0 7.12-2.037 8.027-6.043zm-58.195-21.15h4.785v4.915h.13c2.152-3.838 5.627-5.627 10.062-5.627 8.143 0 10.658 4.668 10.658 11.32v20.358h-5.096v-20.968c0-3.76-2.398-6.224-6.288-6.224-6.173 0-9.155 4.137-9.155 9.7v17.492h-5.096Zm-33.895-11.799h29.525v4.798H35.84v13.589h22.212v4.798H35.84v14.795h24.015v4.785H30.148Zm264.406-41.17c-.778-3.903-3.475-6.172-7.663-6.172-7.379 0-9.648 5.81-9.648 12.098 0 5.693 2.58 11.32 9.038 11.32 4.915 0 7.858-2.878 8.506-7.546H300c-1.141 7.546-5.861 12.033-13.654 12.033-9.466 0-14.497-6.587-14.497-15.807 0-9.284 4.798-16.584 14.614-16.584 7.015 0 12.642 3.293 13.355 10.658zm-32.586-9.945h5.096v30.965h-5.096zm5.096-5.576h-5.096v-6.224h5.096zm-54.862 5.576h4.785v4.551h.116c2.282-3.475 5.757-5.264 9.998-5.264 3.786 0 7.248 1.49 8.519 5.264 2.087-3.293 5.744-5.264 9.699-5.264 6.172 0 10.296 2.567 10.296 8.973v22.705h-5.083V141.17c0-3.826-1.025-6.886-5.991-6.886-4.914 0-8.091 3.112-8.091 7.91v19.282h-5.096V141.17c0-4.007-1.245-6.886-5.81-6.886-6.042 0-8.26 5.576-8.26 7.91v19.282h-5.082zm-19.619 27.191c5.33 0 9.647-4.188 9.647-11.683 0-7.546-4.318-11.735-9.647-11.735-5.33 0-9.647 4.189-9.647 11.735 0 7.495 4.318 11.683 9.647 11.683m0-27.917c9.816 0 15.029 7.132 15.029 16.234 0 9.051-5.213 16.17-15.029 16.17-9.829 0-15.042-7.119-15.042-16.17 0-9.102 5.213-16.234 15.042-16.234m-22.614.726h6.172v4.486h-6.172v19.23c0 2.334.661 2.762 3.838 2.762h2.334v4.487h-3.89c-5.277 0-7.365-1.077-7.365-6.769v-19.71h-5.278v-4.486h5.278v-9.284h5.083zm-35.322 13.29h14.497l-7.132-19.942h-.116zm4.253-25.09h6.29l16.714 42.765h-6.29l-4.667-12.876h-18.09l-4.797 12.876h-5.86zm-67.012 0h5.692v21.318l21.68-21.318h7.366l-18.024 17.246 18.737 25.519h-7.183l-15.457-21.629-7.119 6.652v14.977h-5.692zm-7.599 27.308c0 10.789-6.172 16.481-16.83 16.481-11.022 0-17.545-5.096-17.545-16.48V118.71h5.68v27.308c0 7.547 4.318 11.683 11.865 11.683 7.183 0 11.138-4.136 11.138-11.683v-27.308h5.692zm0 0" fill="#211e1e"/>
</svg>
